<svg width="50" height="50" viewBox="0 0 50 50" fill="none" xmlns="http://www.w3.org/2000/svg">
<g clip-path="url(#clip0_735_577)">
<path d="M31.775 40.5614C39.3559 40.5614 45.5235 34.3939 45.5235 26.8129C45.5235 19.232 39.3559 13.0643 31.775 13.0643C24.194 13.0643 18.0264 19.2319 18.0264 26.8129C18.0264 34.394 24.194 40.5614 31.775 40.5614ZM21.5383 26.0763H19.5221C19.6905 23.2453 20.8225 20.6699 22.5942 18.6737L24.0158 20.0953C24.1595 20.2391 24.3481 20.311 24.5365 20.311C24.725 20.311 24.9135 20.2391 25.0573 20.0953C25.3449 19.8076 25.3449 19.3413 25.0573 19.0537L23.6357 17.6321C25.6319 15.8605 28.2074 14.7285 31.0383 14.5601V16.5763C31.0383 16.983 31.368 17.3128 31.7749 17.3128C32.1817 17.3128 32.5114 16.983 32.5114 16.5763V14.5601C35.3424 14.7285 37.9179 15.8605 39.9139 17.6321L38.4923 19.0537C38.2047 19.3414 38.2047 19.8077 38.4923 20.0953C38.6362 20.239 38.8248 20.311 39.0132 20.311C39.2017 20.311 39.3902 20.2391 39.5341 20.0953L40.9556 18.6737C42.7271 20.6699 43.8592 23.2452 44.0275 26.0762H42.0113C41.6045 26.0762 41.2748 26.406 41.2748 26.8127C41.2748 27.2195 41.6045 27.5493 42.0113 27.5493H44.0275C43.8591 30.3803 42.7271 32.9557 40.9555 34.9518L39.534 33.5303C39.2462 33.2427 38.78 33.2427 38.4923 33.5303C38.2047 33.8179 38.2047 34.2843 38.4923 34.5718L39.9139 35.9934C37.9178 37.7651 35.3424 38.8971 32.5114 39.0655V37.0493C32.5114 36.6426 32.1817 36.3128 31.7749 36.3128C31.368 36.3128 31.0383 36.6426 31.0383 37.0493V39.0655C28.2073 38.8971 25.6319 37.7651 23.6357 35.9934L25.0573 34.5719C25.3449 34.2843 25.3449 33.8179 25.0573 33.5304C24.7696 33.2427 24.3033 33.2428 24.0158 33.5304L22.5942 34.9519C20.8225 32.9557 19.6905 30.3803 19.5221 27.5493H21.5383C21.9451 27.5493 22.2748 27.2195 22.2748 26.8127C22.2748 26.4061 21.9451 26.0763 21.5383 26.0763Z" fill="#F36D25"/>
<path d="M40.7055 40.9887C38.0359 42.6741 34.9478 43.5649 31.775 43.5649C22.5378 43.5649 15.0228 36.0499 15.0228 26.8128C15.0228 23.0731 16.2278 19.5361 18.5073 16.5839C18.7558 16.262 18.6964 15.7994 18.3744 15.5508C18.0525 15.3022 17.59 15.3617 17.3413 15.6837C14.8608 18.896 13.5498 22.7443 13.5498 26.8128C13.5498 36.8622 21.7256 45.038 31.775 45.038C35.2266 45.038 38.5867 44.0684 41.4919 42.2342C41.8359 42.017 41.9386 41.5622 41.7215 41.2182C41.5042 40.8743 41.0495 40.7716 40.7055 40.9887Z" fill="#F36D25"/>
<path d="M36.2168 9.13613V6.34422C36.2168 5.58197 35.5966 4.96191 34.8345 4.96191H28.7151C27.9528 4.96191 27.3328 5.58197 27.3328 6.34422V9.13534C24.4039 9.86911 21.6865 11.3249 19.4248 13.4099C19.1258 13.6857 19.1068 14.1515 19.3825 14.4507C19.6582 14.7497 20.1242 14.7688 20.4232 14.493C23.5236 11.6348 27.555 10.0607 31.7748 10.0607C41.0119 10.0607 48.5269 17.5757 48.5269 26.8128C48.5269 31.5542 46.5042 36.0941 42.9775 39.2682C42.6752 39.5403 42.6506 40.006 42.9228 40.3084C43.0681 40.47 43.2688 40.5521 43.4703 40.5521C43.6459 40.5521 43.8221 40.4898 43.9629 40.3631C47.7995 36.91 50 31.971 50 26.8127C50.0001 18.2952 44.1262 11.1245 36.2168 9.13613ZM28.8059 8.82934V6.43496H34.7438V8.83081C33.7773 8.67173 32.7858 8.58766 31.775 8.58766C30.7726 8.58766 29.7802 8.66937 28.8059 8.82934Z" fill="#F36D25"/>
<path d="M31.7747 27.3288C32.051 27.3288 32.2914 27.1765 32.4174 26.9514L34.9581 24.4107C35.2458 24.123 35.2458 23.6567 34.9581 23.369C34.6705 23.0814 34.2042 23.0814 33.9164 23.369L32.5111 24.7742V21.1875C32.5111 20.7807 32.1815 20.4509 31.7746 20.4509C31.3678 20.4509 31.0381 20.7807 31.0381 21.1875V26.5921C31.0382 26.999 31.3678 27.3288 31.7747 27.3288Z" fill="#F36D25"/>
<path d="M10.8686 26.9791C10.8686 26.5723 10.5388 26.2426 10.1321 26.2426H0.736522C0.329765 26.2426 0 26.5723 0 26.9791C0 27.3858 0.329765 27.7156 0.736522 27.7156H10.1321C10.5388 27.7156 10.8686 27.3859 10.8686 26.9791Z" fill="#F36D25"/>
<path d="M3.67402 23.4263H11.1141C11.5208 23.4263 11.8506 23.0965 11.8506 22.6898C11.8506 22.283 11.5208 21.9532 11.1141 21.9532H3.67402C3.26727 21.9532 2.9375 22.283 2.9375 22.6898C2.9375 23.0965 3.26717 23.4263 3.67402 23.4263Z" fill="#F36D25"/>
<path d="M12.096 17.6638H5.99433C5.58758 17.6638 5.25781 17.9936 5.25781 18.4003C5.25781 18.8071 5.58758 19.1369 5.99433 19.1369H12.096C12.5027 19.1369 12.8325 18.8071 12.8325 18.4003C12.8325 17.9935 12.5027 17.6638 12.096 17.6638Z" fill="#F36D25"/>
<path d="M11.8505 30.936C11.8505 30.5292 11.5207 30.1995 11.114 30.1995H3.67402C3.26727 30.1995 2.9375 30.5292 2.9375 30.936C2.9375 31.3427 3.26727 31.6725 3.67402 31.6725H11.1141C11.5207 31.6725 11.8505 31.3427 11.8505 30.936Z" fill="#F36D25"/>
<path d="M12.096 34.4889H5.99433C5.58758 34.4889 5.25781 34.8187 5.25781 35.2254C5.25781 35.6322 5.58758 35.9619 5.99433 35.9619H12.096C12.5027 35.9619 12.8325 35.6322 12.8325 35.2254C12.8325 34.8187 12.5027 34.4889 12.096 34.4889Z" fill="#F36D25"/>
</g>
<defs>
<clipPath id="clip0_735_577">
<rect width="50" height="50" fill="white"/>
</clipPath>
</defs>
</svg>
